<svg width="16" height="16" viewBox="0 0 16 16" fill="none" xmlns="http://www.w3.org/2000/svg">
<path d="M3.98933 14H2.66667C2.29867 14 2 13.7013 2 13.3333V9.33333C2 8.96533 2.29867 8.66666 2.66667 8.66666H3.98933C4.35733 8.66666 4.656 8.96533 4.656 9.33333V13.3333C4.656 13.7013 4.35733 14 3.98933 14Z" stroke="#3E3E3E" stroke-linecap="round" stroke-linejoin="round"/>
<path d="M8.64001 11.3333H10.1893C10.4767 11.3333 10.756 11.24 10.986 11.0667L12.59 9.85866C12.9907 9.55733 13.5507 9.59733 13.9047 9.95266C14.2973 10.3473 14.2973 10.9867 13.9047 11.3807L12.5287 12.7627C12.158 13.1347 11.686 13.3887 11.1713 13.492L9.22534 13.8827C8.84001 13.96 8.44201 13.9507 8.06001 13.8547L6.30067 13.4133C6.09067 13.36 5.87401 13.3333 5.65667 13.3333H4.65601" stroke="#3E3E3E" stroke-linecap="round" stroke-linejoin="round"/>
<path d="M8.64001 11.3333H9.62601C10.1813 11.3333 10.632 10.8813 10.632 10.3233V10.1213C10.632 9.658 10.318 9.254 9.87001 9.142L8.34801 8.76C8.10067 8.698 7.84667 8.66666 7.59201 8.66666C6.97667 8.66666 6.37467 8.84933 5.86267 9.19266L4.65601 10" stroke="#3E3E3E" stroke-linecap="round" stroke-linejoin="round"/>
<path d="M10.1907 2.44067L9.958 2.68934L9.72466 2.44067C9.21333 1.89534 8.36533 1.85067 7.8 2.33867C7.222 2.83734 7.15333 3.702 7.62866 4.30067C8.30866 5.15667 9.088 6.002 9.958 6.66667C10.85 5.98534 11.646 5.11467 12.338 4.23667C12.7873 3.66667 12.6947 2.83934 12.1467 2.36534L12.1213 2.34334C11.5507 1.85067 10.702 1.89534 10.1907 2.44067V2.44067Z" stroke="#3E3E3E" stroke-linecap="round" stroke-linejoin="round"/>
</svg>
