<svg width="280" height="280" viewBox="0 0 280 280" fill="none" xmlns="http://www.w3.org/2000/svg">
<path d="M140 239.591C113.478 239.591 88.043 229.055 69.2893 210.302C50.5357 191.548 40 166.113 40 139.591C40 113.07 50.5357 87.6341 69.2893 68.8805C88.043 50.1268 113.478 39.5912 140 39.5912L140 59.5912C118.783 59.5912 98.4344 68.0197 83.4315 83.0226C68.4285 98.0255 60 118.374 60 139.591C60 160.808 68.4285 181.157 83.4315 196.16C98.4344 211.163 118.783 219.591 140 219.591L140 239.591Z" fill="#5F8BFF"/>
<path d="M140 39.5912C162.193 39.5912 183.755 46.9736 201.291 60.5757C218.826 74.1777 231.339 93.2266 236.858 114.722C242.377 136.218 240.589 158.938 231.775 179.306C222.962 199.673 207.623 216.53 188.175 227.222L178.54 209.696C194.098 201.143 206.369 187.657 213.42 171.363C220.471 155.069 221.902 136.892 217.487 119.696C213.071 102.5 203.061 87.2604 189.033 76.3788C175.004 65.4971 157.754 59.5912 140 59.5912L140 39.5912Z" fill="#2AE475"/>
<path d="M198.456 220.726C181.322 233.071 160.72 239.674 139.602 239.59L139.682 219.591C156.576 219.658 173.058 214.375 186.765 204.499L198.456 220.726Z" fill="#FC2874"/>
</svg>
