<svg width="24" height="24" viewBox="0 0 24 24" fill="none" xmlns="http://www.w3.org/2000/svg">
<g opacity="0.24">
<path d="M5.984 21H4C3.448 21 3 20.552 3 20V14C3 13.448 3.448 13 4 13H5.984C6.536 13 6.984 13.448 6.984 14V20C6.984 20.552 6.536 21 5.984 21Z" stroke="#3E3E3E" stroke-width="1.5" stroke-linecap="round" stroke-linejoin="round"/>
<path d="M12.96 17H15.284C15.715 17 16.134 16.86 16.479 16.6L18.885 14.788C19.486 14.336 20.326 14.396 20.857 14.929C21.446 15.521 21.446 16.48 20.857 17.071L18.793 19.144C18.237 19.702 17.529 20.083 16.757 20.238L13.838 20.824C13.26 20.94 12.663 20.926 12.09 20.782L9.45101 20.12C9.13601 20.04 8.81101 20 8.48501 20H6.98401" stroke="#3E3E3E" stroke-width="1.5" stroke-linecap="round" stroke-linejoin="round"/>
<path d="M12.96 17H14.439C15.272 17 15.948 16.322 15.948 15.485V15.182C15.948 14.487 15.477 13.881 14.805 13.713L12.522 13.14C12.151 13.047 11.77 13 11.388 13C10.465 13 9.56201 13.274 8.79401 13.789L6.98401 15" stroke="#3E3E3E" stroke-width="1.5" stroke-linecap="round" stroke-linejoin="round"/>
<path d="M15.286 3.661L14.937 4.034L14.587 3.661C13.82 2.843 12.548 2.776 11.7 3.508C10.833 4.256 10.73 5.553 11.443 6.451C12.463 7.735 13.632 9.003 14.937 10C16.275 8.978 17.469 7.672 18.507 6.355C19.181 5.5 19.042 4.259 18.22 3.548L18.182 3.515C17.326 2.776 16.053 2.843 15.286 3.661V3.661Z" stroke="#3E3E3E" stroke-width="1.5" stroke-linecap="round" stroke-linejoin="round"/>
</g>
</svg>
