<svg width="16" height="16" viewBox="0 0 16 16" fill="none" xmlns="http://www.w3.org/2000/svg">
<path d="M3.98933 14H2.66667C2.29867 14 2 13.7013 2 13.3333V9.33334C2 8.96534 2.29867 8.66667 2.66667 8.66667H3.98933C4.35733 8.66667 4.656 8.96534 4.656 9.33334V13.3333C4.656 13.7013 4.35733 14 3.98933 14Z" stroke="#16B396" stroke-linecap="round" stroke-linejoin="round"/>
<path d="M8.64001 11.3333H10.1893C10.4767 11.3333 10.756 11.24 10.986 11.0667L12.59 9.85867C12.9907 9.55734 13.5507 9.59734 13.9047 9.95267C14.2973 10.3473 14.2973 10.9867 13.9047 11.3807L12.5287 12.7627C12.158 13.1347 11.686 13.3887 11.1713 13.492L9.22534 13.8827C8.84001 13.96 8.44201 13.9507 8.06001 13.8547L6.30067 13.4133C6.09067 13.36 5.87401 13.3333 5.65667 13.3333H4.65601" stroke="#16B396" stroke-linecap="round" stroke-linejoin="round"/>
<path d="M8.64001 11.3333H9.62601C10.1813 11.3333 10.632 10.8813 10.632 10.3233V10.1213C10.632 9.658 10.318 9.25401 9.87001 9.14201L8.34801 8.76001C8.10067 8.69801 7.84667 8.66667 7.59201 8.66667C6.97667 8.66667 6.37467 8.84934 5.86267 9.19267L4.65601 10" stroke="#16B396" stroke-linecap="round" stroke-linejoin="round"/>
<path d="M10.1907 2.44066L9.958 2.68933L9.72466 2.44066C9.21333 1.89533 8.36533 1.85066 7.8 2.33866C7.222 2.83733 7.15333 3.702 7.62866 4.30066C8.30866 5.15666 9.088 6.002 9.958 6.66666C10.85 5.98533 11.646 5.11466 12.338 4.23666C12.7873 3.66666 12.6947 2.83933 12.1467 2.36533L12.1213 2.34333C11.5507 1.85066 10.702 1.89533 10.1907 2.44066V2.44066Z" stroke="#16B396" stroke-linecap="round" stroke-linejoin="round"/>
</svg>
