<svg width="280" height="280" viewBox="0 0 280 280" fill="none" xmlns="http://www.w3.org/2000/svg">
<path d="M139.591 239.591C113.07 239.591 87.6343 229.055 68.8806 210.302C50.127 191.548 39.5913 166.113 39.5913 139.591C39.5913 113.07 50.127 87.6341 68.8806 68.8805C87.6343 50.1268 113.07 39.5912 139.591 39.5912L139.591 59.5912C118.374 59.5912 98.0257 68.0197 83.0228 83.0226C68.0199 98.0255 59.5913 118.374 59.5913 139.591C59.5913 160.808 68.0199 181.157 83.0228 196.16C98.0257 211.163 118.374 219.591 139.591 219.591L139.591 239.591Z" fill="#C4C4C4"/>
<path d="M139.591 39.5912C161.784 39.5912 183.346 46.9736 200.882 60.5757C218.418 74.1777 230.93 93.2266 236.45 114.722C241.969 136.218 240.181 158.938 231.367 179.306C222.553 199.673 207.214 216.53 187.767 227.222L178.132 209.696C193.69 201.143 205.961 187.657 213.012 171.363C220.063 155.069 221.493 136.892 217.078 119.696C212.663 102.5 202.652 87.2604 188.624 76.3788C174.595 65.4971 157.345 59.5912 139.591 59.5912L139.591 39.5912Z" fill="#C4C4C4"/>
<path d="M198.048 220.726C180.914 233.071 160.311 239.674 139.194 239.59L139.273 219.591C156.167 219.658 172.649 214.375 186.356 204.499L198.048 220.726Z" fill="#C4C4C4"/>
</svg>
