<svg width="16" height="16" viewBox="0 0 16 16" fill="none" xmlns="http://www.w3.org/2000/svg">
<path d="M5.33325 7.33333H9.33325" stroke="#3E3E3E" stroke-linecap="round" stroke-linejoin="round"/>
<path d="M5.33325 9.33333H6.66658" stroke="#3E3E3E" stroke-linecap="round" stroke-linejoin="round"/>
<path d="M12.0001 6.66667V5.21867V5.21895C12.0001 4.86536 11.8596 4.52625 11.6096 4.2762L9.72408 2.39067V2.39067C9.47409 2.1406 9.13501 2.00008 8.78141 2H4.00008V2C3.2637 2 2.66675 2.59695 2.66675 3.33333V12.6667V12.6667C2.66675 13.403 3.2637 14 4.00008 14H6.66675" stroke="#3E3E3E" stroke-linecap="round" stroke-linejoin="round"/>
<path d="M12.0001 5.33333H9.33341V5.33333C8.96522 5.33333 8.66675 5.03486 8.66675 4.66667V2" stroke="#3E3E3E" stroke-linecap="round" stroke-linejoin="round"/>
<path d="M10.6667 11.5H8.66675V14H10.6667V11.5Z" stroke="#3E3E3E" stroke-linecap="round" stroke-linejoin="round"/>
<path d="M12.6667 8.66667H10.6667V14H12.6667V8.66667Z" stroke="#3E3E3E" stroke-linecap="round" stroke-linejoin="round"/>
<path d="M14.6667 10.1667H12.6667V14H14.6667V10.1667Z" stroke="#3E3E3E" stroke-linecap="round" stroke-linejoin="round"/>
</svg>
