<svg width="16" height="16" viewBox="0 0 16 16" fill="none" xmlns="http://www.w3.org/2000/svg">
<path d="M5.33337 7.33334H9.33337" stroke="#16B396" stroke-linecap="round" stroke-linejoin="round"/>
<path d="M5.33337 9.33334H6.66671" stroke="#16B396" stroke-linecap="round" stroke-linejoin="round"/>
<path d="M12 6.66667V5.21867V5.21895C12 4.86536 11.8595 4.52625 11.6095 4.2762L9.72396 2.39067V2.39067C9.47397 2.1406 9.13489 2.00008 8.78129 2H3.99996V2C3.26358 2 2.66663 2.59695 2.66663 3.33333V12.6667V12.6667C2.66663 13.403 3.26358 14 3.99996 14H6.66663" stroke="#16B396" stroke-linecap="round" stroke-linejoin="round"/>
<path d="M12 5.33333H9.33329V5.33333C8.9651 5.33333 8.66663 5.03486 8.66663 4.66667V2" stroke="#16B396" stroke-linecap="round" stroke-linejoin="round"/>
<path d="M10.6666 11.5H8.66663V14H10.6666V11.5Z" stroke="#16B396" stroke-linecap="round" stroke-linejoin="round"/>
<path d="M12.6666 8.66666H10.6666V14H12.6666V8.66666Z" stroke="#16B396" stroke-linecap="round" stroke-linejoin="round"/>
<path d="M14.6666 10.1667H12.6666V14H14.6666V10.1667Z" stroke="#16B396" stroke-linecap="round" stroke-linejoin="round"/>
</svg>
