<svg width="140" height="120" viewBox="0 0 140 120" fill="none" xmlns="http://www.w3.org/2000/svg">
<path fill-rule="evenodd" clip-rule="evenodd" d="M69.1346 75L16.875 22.7404L39.6154 0L91.875 52.2596L69.1346 75Z" fill="white"/>
<path fill-rule="evenodd" clip-rule="evenodd" d="M121.354 22.7798L97.2742 46.8617L74.5338 24.1213L98.6141 0.0394592L121.354 22.7798Z" fill="white"/>
<path d="M19.0745 120L15.8293 115.637C14.8678 115.829 13.9303 115.925 13.0168 115.925C10.637 115.925 8.44952 115.373 6.45433 114.267C4.48317 113.161 2.90865 111.623 1.73077 109.651C0.576923 107.656 0 105.421 0 102.945C0 100.469 0.576923 98.2452 1.73077 96.274C2.90865 94.3029 4.48317 92.7644 6.45433 91.6587C8.44952 90.5529 10.637 90 13.0168 90C15.3966 90 17.5721 90.5529 19.5433 91.6587C21.5385 92.7644 23.101 94.3029 24.2308 96.274C25.3846 98.2452 25.9615 100.469 25.9615 102.945C25.9615 105.108 25.5168 107.091 24.6274 108.894C23.762 110.673 22.5481 112.151 20.9856 113.329L26.5385 120H19.0745ZM6.3101 102.945C6.3101 105.18 6.91106 106.971 8.11298 108.317C9.33894 109.639 10.9736 110.3 13.0168 110.3C15.0361 110.3 16.6466 109.627 17.8486 108.281C19.0745 106.935 19.6875 105.156 19.6875 102.945C19.6875 100.709 19.0745 98.9303 17.8486 97.6082C16.6466 96.262 15.0361 95.5889 13.0168 95.5889C10.9736 95.5889 9.33894 96.25 8.11298 97.5721C6.91106 98.8942 6.3101 100.685 6.3101 102.945Z" fill="white"/>
<path d="M47.8877 95.5529V115.673H41.7218V112.933C41.0968 113.822 40.2435 114.543 39.1618 115.096C38.1041 115.625 36.9262 115.889 35.6281 115.889C34.0896 115.889 32.7315 115.553 31.5536 114.88C30.3757 114.183 29.4622 113.185 28.8132 111.887C28.1642 110.589 27.8396 109.062 27.8396 107.308V95.5529H33.9694V106.478C33.9694 107.825 34.318 108.87 35.0151 109.615C35.7122 110.361 36.6497 110.733 37.8276 110.733C39.0295 110.733 39.9791 110.361 40.6762 109.615C41.3733 108.87 41.7218 107.825 41.7218 106.478V95.5529H47.8877Z" fill="white"/>
<path d="M49.6483 105.577C49.6483 103.51 50.033 101.695 50.8022 100.132C51.5955 98.5697 52.6652 97.3678 54.0113 96.5264C55.3575 95.6851 56.8599 95.2644 58.5185 95.2644C59.9368 95.2644 61.1748 95.5529 62.2325 96.1298C63.3142 96.7067 64.1435 97.4639 64.7205 98.4014V95.5529H70.8863V115.673H64.7205V112.825C64.1195 113.762 63.2782 114.519 62.1964 115.096C61.1387 115.673 59.9007 115.962 58.4825 115.962C56.8479 115.962 55.3575 115.541 54.0113 114.7C52.6652 113.834 51.5955 112.62 50.8022 111.058C50.033 109.471 49.6483 107.644 49.6483 105.577ZM64.7205 105.613C64.7205 104.075 64.2878 102.861 63.4224 101.971C62.581 101.082 61.5474 100.637 60.3214 100.637C59.0955 100.637 58.0498 101.082 57.1844 101.971C56.3431 102.837 55.9224 104.038 55.9224 105.577C55.9224 107.115 56.3431 108.341 57.1844 109.255C58.0498 110.144 59.0955 110.589 60.3214 110.589C61.5474 110.589 62.581 110.144 63.4224 109.255C64.2878 108.365 64.7205 107.151 64.7205 105.613Z" fill="white"/>
<path d="M78.9889 98.9062C79.71 97.8005 80.6115 96.9351 81.6932 96.3101C82.7749 95.6611 83.9769 95.3365 85.299 95.3365V101.863H83.6043C82.0658 101.863 80.912 102.2 80.1427 102.873C79.3735 103.522 78.9889 104.675 78.9889 106.334V115.673H72.823V95.5529H78.9889V98.9062Z" fill="white"/>
<path d="M99.8206 110.445V115.673H96.6836C94.4481 115.673 92.7053 115.132 91.4553 114.05C90.2053 112.945 89.5803 111.154 89.5803 108.678V100.673H87.1283V95.5529H89.5803V90.649H95.7461V95.5529H99.7846V100.673H95.7461V108.75C95.7461 109.351 95.8904 109.784 96.1788 110.048C96.4673 110.312 96.9481 110.445 97.6211 110.445H99.8206Z" fill="white"/>
<path d="M108.664 110.589H117.39V115.673H101.777V110.769L110.142 100.637H101.849V95.5529H117.209V100.457L108.664 110.589Z" fill="white"/>
<path d="M128.859 115.962C126.888 115.962 125.109 115.541 123.523 114.7C121.96 113.858 120.722 112.656 119.809 111.094C118.92 109.531 118.475 107.704 118.475 105.613C118.475 103.546 118.932 101.731 119.845 100.168C120.759 98.5817 122.009 97.3678 123.595 96.5264C125.182 95.6851 126.96 95.2644 128.932 95.2644C130.903 95.2644 132.682 95.6851 134.268 96.5264C135.855 97.3678 137.105 98.5817 138.018 100.168C138.932 101.731 139.388 103.546 139.388 105.613C139.388 107.68 138.92 109.507 137.982 111.094C137.069 112.656 135.807 113.858 134.196 114.7C132.609 115.541 130.831 115.962 128.859 115.962ZM128.859 110.625C130.037 110.625 131.035 110.192 131.852 109.327C132.694 108.462 133.114 107.224 133.114 105.613C133.114 104.002 132.706 102.764 131.888 101.899C131.095 101.034 130.109 100.601 128.932 100.601C127.73 100.601 126.732 101.034 125.939 101.899C125.146 102.74 124.749 103.978 124.749 105.613C124.749 107.224 125.134 108.462 125.903 109.327C126.696 110.192 127.682 110.625 128.859 110.625Z" fill="white"/>
</svg>
