<svg width="16" height="16" viewBox="0 0 16 16" fill="none" xmlns="http://www.w3.org/2000/svg">
<path d="M9.27602 11.08C8.85802 11.2527 8.42535 11.3333 8.00002 11.3333C6.15935 11.3333 4.66669 9.84066 4.66669 7.99999C4.66669 6.15932 6.15935 4.66666 8.00002 4.66666C9.84069 4.66666 11.3334 6.15932 11.3334 7.99999V8.55532C11.3334 9.13066 10.8667 9.59666 10.292 9.59666C9.71735 9.59666 9.25069 9.12999 9.25069 8.55532V7.99999C9.25069 7.30932 8.69135 6.74999 8.00069 6.74999C7.31002 6.74999 6.75069 7.30932 6.75069 7.99999C6.75069 8.69066 7.31002 9.24999 8.00069 9.24999C8.69135 9.24999 9.25069 8.69066 9.25069 7.99999" stroke="#F5EFF0" stroke-linecap="round" stroke-linejoin="round"/>
<path d="M3.33333 2H12.6667C13.4033 2 14 2.59667 14 3.33333V12.6667C14 13.4033 13.4033 14 12.6667 14H3.33333C2.59667 14 2 13.4033 2 12.6667V3.33333C2 2.59667 2.59667 2 3.33333 2Z" stroke="#F5EFF0" stroke-linecap="round" stroke-linejoin="round"/>
</svg>
