<svg width="24" height="24" viewBox="0 0 24 24" fill="none" xmlns="http://www.w3.org/2000/svg">
<path d="M4 18V9" stroke="white" stroke-width="1.5" stroke-linecap="round" stroke-linejoin="round"/>
<path d="M20 9V18" stroke="white" stroke-width="1.5" stroke-linecap="round" stroke-linejoin="round"/>
<path d="M8 9V18" stroke="white" stroke-width="1.5" stroke-linecap="round" stroke-linejoin="round"/>
<path d="M12 9V18" stroke="white" stroke-width="1.5" stroke-linecap="round" stroke-linejoin="round"/>
<path d="M16 9V18" stroke="white" stroke-width="1.5" stroke-linecap="round" stroke-linejoin="round"/>
<path fill-rule="evenodd" clip-rule="evenodd" d="M11.126 6.40547C11.1218 5.91423 11.5207 5.52499 12 5.52499C12.4853 5.52499 12.8691 5.91651 12.8759 6.38913L12.8761 6.39999C12.8761 6.88321 12.4842 7.27499 12.001 7.27499C11.5196 7.27499 11.129 6.88616 11.126 6.40547ZM11.126 6.39999L11.1261 6.41086L11.126 6.40547L11.126 6.39999Z" fill="white"/>
<path d="M21.5 9H2.5V6.361L12 3L21.5 6.361V9Z" stroke="white" stroke-width="1.5" stroke-linecap="round" stroke-linejoin="round"/>
<path d="M21 18H3L2 19V21H22V19L21 18Z" stroke="white" stroke-width="1.5" stroke-linecap="round" stroke-linejoin="round"/>
</svg>
