<svg width="32" height="32" viewBox="0 0 32 32" fill="none" xmlns="http://www.w3.org/2000/svg">
<path d="M13.3733 6.66666H6" stroke="#3E3E3E" stroke-width="1.5" stroke-linecap="round" stroke-linejoin="round"/>
<path d="M17.9216 4.78105C18.963 5.82245 18.963 7.51089 17.9216 8.55229C16.8802 9.59369 15.1917 9.59369 14.1503 8.55229C13.1089 7.51089 13.1089 5.82245 14.1503 4.78105C15.1917 3.73965 16.8802 3.73965 17.9216 4.78105" stroke="#3E3E3E" stroke-width="1.5" stroke-linecap="round" stroke-linejoin="round"/>
<path d="M26 6.66666H18.7067" stroke="#3E3E3E" stroke-width="1.5" stroke-linecap="round" stroke-linejoin="round"/>
<path d="M6 27.6667H26" stroke="#3E3E3E" stroke-width="1.5" stroke-linecap="round" stroke-linejoin="round"/>
<path d="M16.04 9.33334L16 27.6667" stroke="#3E3E3E" stroke-width="1.5" stroke-linecap="round" stroke-linejoin="round"/>
<path d="M11.752 17.636C11.904 17.876 11.9906 18.1573 11.964 18.44C11.7413 20.8107 9.74663 22.6667 7.31729 22.6667C4.88929 22.6667 2.89463 20.812 2.67063 18.4413C2.64396 18.1587 2.73196 17.872 2.88529 17.632L7.31729 10.6667C7.31729 10.6667 10.8093 16.1533 11.752 17.636V17.636Z" stroke="#3E3E3E" stroke-width="1.5" stroke-linecap="round" stroke-linejoin="round"/>
<path d="M11.92 18H2.71997" stroke="#3E3E3E" stroke-width="1.5" stroke-linecap="round" stroke-linejoin="round"/>
<path d="M29.1213 17.636C29.2733 17.876 29.36 18.1573 29.3333 18.44C29.1107 20.8107 27.116 22.6667 24.6867 22.6667C22.2587 22.6667 20.264 20.812 20.04 18.4413C20.0133 18.1587 20.1013 17.872 20.2547 17.632L24.6867 10.6667C24.6867 10.6667 28.1773 16.1533 29.1213 17.636Z" stroke="#3E3E3E" stroke-width="1.5" stroke-linecap="round" stroke-linejoin="round"/>
<path d="M29.2933 18H20.08" stroke="#3E3E3E" stroke-width="1.5" stroke-linecap="round" stroke-linejoin="round"/>
</svg>
