<svg width="16" height="16" viewBox="0 0 16 16" fill="none" xmlns="http://www.w3.org/2000/svg">
<path d="M6.66667 6.96469H9.33333C9.7 6.96469 10 7.26469 10 7.63136V9.66669C10 10.0347 9.70133 10.3334 9.33333 10.3334H6.66667C6.29867 10.3334 6 10.0347 6 9.66669V7.63136C6 7.26336 6.29867 6.96469 6.66667 6.96469Z" stroke="#F5EFF0" stroke-linecap="round" stroke-linejoin="round"/>
<path d="M6.87738 6.96467V6.12267C6.87738 5.50267 7.38005 5 8.00005 5C8.62005 5 9.12271 5.50267 9.12271 6.12267V6.96333" stroke="#F5EFF0" stroke-linecap="round" stroke-linejoin="round"/>
<path d="M3.98202 3.37802L7.54335 2.08068C7.83802 1.97335 8.16135 1.97335 8.45602 2.08068L12.0174 3.37802C12.808 3.66602 13.3334 4.41668 13.3334 5.25735V8.50535C13.3334 10.8927 12.1147 11.872 8.66335 13.826C8.25202 14.0587 7.74802 14.0587 7.33669 13.826C3.88535 11.872 2.66669 10.8927 2.66669 8.50535V5.25735C2.66669 4.41668 3.19202 3.66602 3.98202 3.37802V3.37802Z" stroke="#F5EFF0" stroke-linecap="round" stroke-linejoin="round"/>
</svg>
